# xmcd
#
# Track frame offsets: 
#        179
#        28034
#        39985
#        50726
#        68504
#        87413
#        110420
#        124175
#
# Disc length: 1899 seconds
#
# Revision: 10
# Processed by: cddbd v1.5.2PL0 Copyright (c) Steve Scherf et al.
# Submitted via: ExactAudioCopyFreeDBPlugin 1.0
#
DISCID=66076908
DTITLE=JOHNNY CASH - 1964 - Johnny Cash - Bitter Tears
DYEAR=1964
DGENRE=Country
TTITLE0=As long as the grass shall grow
TTITLE1=Apache tears
TTITLE2=Custer
TTITLE3=The talking leaves
TTITLE4=The ballad of Ira Hayes
TTITLE5=Drums
TTITLE6=White girl
TTITLE7=The vanishing race
EXTD=
EXTT0=
EXTT1=
EXTT2=
EXTT3=
EXTT4=
EXTT5=
EXTT6=
EXTT7=
PLAYORDER=
